<svg width="800" height="600" viewBox="0 0 800 600" fill="none" xmlns="http://www.w3.org/2000/svg">
<rect width="800" height="600" rx="20" fill="white"/>
<rect x="0.5" y="0.5" width="799" height="599" rx="19.5" stroke="#E2E8F0"/>
<!-- Sidebar -->
<rect x="20" y="20" width="180" height="560" rx="10" fill="#F8FAFC"/>
<rect x="40" y="40" width="100" height="20" rx="5" fill="#CBD5E1"/>
<rect x="40" y="90" width="140" height="10" rx="5" fill="#E2E8F0"/>
<rect x="40" y="120" width="140" height="10" rx="5" fill="#E2E8F0"/>
<rect x="40" y="150" width="140" height="10" rx="5" fill="#E2E8F0"/>
<rect x="40" y="180" width="140" height="10" rx="5" fill="#E2E8F0"/>

<!-- Top Bar -->
<rect x="220" y="20" width="560" height="60" rx="10" fill="#F8FAFC"/>
<circle cx="750" cy="50" r="15" fill="#CBD5E1"/>
<rect x="680" y="40" width="30" height="20" rx="5" fill="#E2E8F0"/>

<!-- Main Content Cards -->
<!-- Chart 1 -->
<rect x="220" y="100" width="350" height="220" rx="10" fill="#FFFFFF" stroke="#E2E8F0"/>
<path d="M240 280L290 220L340 250L400 180L460 210L520 150" stroke="#2563EB" stroke-width="4" stroke-linecap="round" stroke-linejoin="round"/>
<circle cx="240" cy="280" r="4" fill="#2563EB"/>
<circle cx="290" cy="220" r="4" fill="#2563EB"/>
<circle cx="340" cy="250" r="4" fill="#2563EB"/>
<circle cx="400" cy="180" r="4" fill="#2563EB"/>
<circle cx="460" cy="210" r="4" fill="#2563EB"/>
<circle cx="520" cy="150" r="4" fill="#2563EB"/>
<rect x="240" y="120" width="100" height="10" rx="5" fill="#E2E8F0"/>

<!-- Stat Cards -->
<rect x="590" y="100" width="190" height="100" rx="10" fill="#0A2540"/>
<rect x="610" y="120" width="80" height="10" rx="5" fill="#334155"/>
<rect x="610" y="150" width="100" height="20" rx="5" fill="#2563EB"/>

<rect x="590" y="220" width="190" height="100" rx="10" fill="#FFFFFF" stroke="#E2E8F0"/>
<rect x="610" y="240" width="80" height="10" rx="5" fill="#E2E8F0"/>
<rect x="610" y="270" width="100" height="20" rx="5" fill="#14B8A6"/>

<!-- Bottom Table -->
<rect x="220" y="340" width="560" height="240" rx="10" fill="#FFFFFF" stroke="#E2E8F0"/>
<rect x="240" y="360" width="120" height="15" rx="5" fill="#E2E8F0"/>
<rect x="240" y="400" width="520" height="10" rx="5" fill="#F1F5F9"/>
<rect x="240" y="430" width="520" height="10" rx="5" fill="#F1F5F9"/>
<rect x="240" y="460" width="520" height="10" rx="5" fill="#F1F5F9"/>
<rect x="240" y="490" width="520" height="10" rx="5" fill="#F1F5F9"/>
<rect x="240" y="520" width="520" height="10" rx="5" fill="#F1F5F9"/>
</svg>
