<svg width="800" height="500" viewBox="0 0 800 500" fill="none" xmlns="http://www.w3.org/2000/svg">
<rect width="800" height="500" rx="20" fill="#0A2540"/>
<path d="M0 0H800V500H0V0Z" fill="url(#grad1)"/>
<defs>
<linearGradient id="grad1" x1="0" y1="0" x2="800" y2="500" gradientUnits="userSpaceOnUse">
<stop offset="0" stop-color="#0A2540"/>
<stop offset="1" stop-color="#1E3A8A"/>
</linearGradient>
</defs>

<!-- Map Dots -->
<circle cx="200" cy="250" r="4" fill="#2563EB" opacity="0.5"/>
<circle cx="250" cy="180" r="4" fill="#2563EB" opacity="0.5"/>
<circle cx="300" cy="300" r="4" fill="#2563EB" opacity="0.5"/>
<circle cx="400" cy="200" r="4" fill="#2563EB" opacity="0.5"/>
<circle cx="500" cy="350" r="4" fill="#2563EB" opacity="0.5"/>
<circle cx="600" cy="150" r="4" fill="#2563EB" opacity="0.5"/>
<circle cx="650" cy="280" r="4" fill="#2563EB" opacity="0.5"/>

<!-- Connection Lines -->
<path d="M200 250L400 200L600 150" stroke="#14B8A6" stroke-width="1" opacity="0.4"/>
<path d="M250 180L400 200L500 350" stroke="#14B8A6" stroke-width="1" opacity="0.4"/>
<path d="M300 300L500 350L650 280" stroke="#14B8A6" stroke-width="1" opacity="0.4"/>

<!-- Highlight Nodes -->
<circle cx="400" cy="200" r="8" fill="#14B8A6"/>
<circle cx="400" cy="200" r="16" stroke="#14B8A6" stroke-width="2" opacity="0.5"/>

<rect x="420" y="180" width="120" height="40" rx="4" fill="white"/>
<text x="435" y="205" font-family="sans-serif" font-size="12" fill="#0A2540" font-weight="bold">Global Reach</text>

</svg>
