<svg width="320" height="400" viewBox="0 0 320 400" fill="none" xmlns="http://www.w3.org/2000/svg">
  <defs>
    <linearGradient id="greenGrad" x1="0%" y1="0%" x2="100%" y2="100%">
      <stop offset="0%" style="stop-color:#4ADE80;stop-opacity:1" />
      <stop offset="100%" style="stop-color:#16A34A;stop-opacity:1" />
    </linearGradient>
  </defs>
  <rect width="320" height="400" fill="#1E293B"/>
  <g transform="translate(160, 180)">
    <rect x="-60" y="-50" width="120" height="100" rx="8" fill="url(#greenGrad)" opacity="0.9"/>
    <circle cx="0" cy="-20" r="25" fill="white" opacity="0.3"/>
    <text y="-10" font-family="Arial" font-size="28" font-weight="bold" fill="white" text-anchor="middle">$</text>
    <rect x="-50" y="15" width="35" height="25" rx="4" fill="white" opacity="0.3"/>
    <rect x="-5" y="15" width="35" height="25" rx="4" fill="white" opacity="0.3"/>
    <path d="M -70,70 L -50,90 L -30,70 L -10,90 L 10,70 L 30,90 L 50,70 L 70,90" 
          stroke="#4ADE80" stroke-width="4" fill="none" stroke-linecap="round"/>
    <circle cx="-50" cy="90" r="6" fill="#4ADE80"/>
    <circle cx="-10" cy="90" r="6" fill="#4ADE80"/>
    <circle cx="30" cy="90" r="6" fill="#4ADE80"/>
    <circle cx="70" cy="90" r="6" fill="#4ADE80"/>
  </g>
  <text x="160" y="320" font-family="Arial" font-size="26" font-weight="bold" fill="white" text-anchor="middle">Banking & Fintech</text>
  <text x="160" y="350" font-family="Arial" font-size="14" fill="#94A3B8" text-anchor="middle">Secure Financial Systems</text>
</svg>
