<svg width="1000" height="400" viewBox="0 0 1000 400" fill="none" xmlns="http://www.w3.org/2000/svg">
<rect width="1000" height="400" fill="white"/>

<!-- Step 1 -->
<rect x="50" y="150" width="180" height="120" rx="12" fill="white" stroke="#E2E8F0" stroke-width="2"/>
<circle cx="140" cy="130" r="30" fill="#2563EB"/>
<text x="128" y="138" font-family="sans-serif" font-size="24" fill="white" font-weight="bold">1</text>
<text x="90" y="220" font-family="sans-serif" font-size="16" fill="#0A2540" font-weight="bold">Planning</text>

<!-- Arrow 1 -->
<path d="M250 210H300" stroke="#CBD5E1" stroke-width="2" marker-end="url(#arrowhead)"/>

<!-- Step 2 -->
<rect x="320" y="150" width="180" height="120" rx="12" fill="white" stroke="#E2E8F0" stroke-width="2"/>
<circle cx="410" cy="130" r="30" fill="#14B8A6"/>
<text x="398" y="138" font-family="sans-serif" font-size="24" fill="white" font-weight="bold">2</text>
<text x="365" y="220" font-family="sans-serif" font-size="16" fill="#0A2540" font-weight="bold">Design</text>

<!-- Arrow 2 -->
<path d="M520 210H570" stroke="#CBD5E1" stroke-width="2" marker-end="url(#arrowhead)"/>

<!-- Step 3 -->
<rect x="590" y="150" width="180" height="120" rx="12" fill="white" stroke="#E2E8F0" stroke-width="2"/>
<circle cx="680" cy="130" r="30" fill="#0A2540"/>
<text x="668" y="138" font-family="sans-serif" font-size="24" fill="white" font-weight="bold">3</text>
<text x="630" y="220" font-family="sans-serif" font-size="16" fill="#0A2540" font-weight="bold">Build</text>

<!-- Arrow 3 -->
<path d="M790 210H840" stroke="#CBD5E1" stroke-width="2" marker-end="url(#arrowhead)"/>

<!-- Step 4 -->
<rect x="860" y="150" width="100" height="120" rx="12" fill="#F0FDFA" stroke="#14B8A6" stroke-width="2"/>
<circle cx="910" cy="130" r="30" fill="#14B8A6"/>
<path d="M900 130L908 138L924 122" stroke="white" stroke-width="3" stroke-linecap="round" stroke-linejoin="round"/>

<defs>
<marker id="arrowhead" markerWidth="10" markerHeight="7" refX="0" refY="3.5" orient="auto">
<polygon points="0 0, 10 3.5, 0 7" fill="#CBD5E1"/>
</marker>
</defs>
</svg>
